<svg id="Grupo_1" data-name="Grupo 1" xmlns="http://www.w3.org/2000/svg" xmlns:xlink="http://www.w3.org/1999/xlink" width="309.5" height="76.377" viewBox="0 0 309.5 76.377">
  <defs>
    <clipPath id="clip-path">
      <rect id="Retângulo_39" data-name="Retângulo 39" width="309.5" height="76.377" fill="#fff"/>
    </clipPath>
  </defs>
  <path id="Caminho_1" data-name="Caminho 1" d="M31.418,26.053,20.945,47,10.473,26.053H0l20.945,41.89L41.89,26.053Z" transform="translate(0 -12.638)" fill="#fff"/>
  <path id="Caminho_2" data-name="Caminho 2" d="M141.771,26.053h10.473L162.716,47l10.473-20.945h10.473l-20.945,41.89Z" transform="translate(-68.773 -12.638)" fill="#fff"/>
  <g id="Grupo_47" data-name="Grupo 47">
    <g id="Grupo_46" data-name="Grupo 46" clip-path="url(#clip-path)">
      <path id="Caminho_3" data-name="Caminho 3" d="M240.625,61.807A20.179,20.179,0,0,1,234.489,47a20.156,20.156,0,0,1,6.136-14.788,20.863,20.863,0,0,1,29.6,0A20.124,20.124,0,0,1,276.379,47V67.943H265.907V47A10.472,10.472,0,1,0,248.029,54.4a10.093,10.093,0,0,0,7.4,3.067V67.943a20.179,20.179,0,0,1-14.809-6.136" transform="translate(-113.751 -12.638)" fill="#fff"/>
      <path id="Caminho_4" data-name="Caminho 4" d="M108.68,26.053V47a10.51,10.51,0,0,0,10.473,10.473V67.943a20.147,20.147,0,0,1-14.809-6.157A20.158,20.158,0,0,1,98.207,47V26.053Z" transform="translate(-47.64 -12.638)" fill="#fff"/>
      <path id="Caminho_5" data-name="Caminho 5" d="M107.14,1.539a5.216,5.216,0,0,0-7.4,0,5.038,5.038,0,0,0-1.534,3.7,5.043,5.043,0,0,0,1.534,3.7,5.227,5.227,0,0,0,7.4,0,5.038,5.038,0,0,0,1.539-3.7,5.032,5.032,0,0,0-1.539-3.7" transform="translate(-47.64)" fill="#fff"/>
      <path id="Caminho_6" data-name="Caminho 6" d="M458.556,121.37a21.021,21.021,0,0,1-13.449-26.392l9.96,3.236a10.473,10.473,0,0,0,19.92,6.471l9.96,3.236a20.985,20.985,0,0,1-26.392,13.449" transform="translate(-215.399 -46.074)" fill="#fff"/>
      <path id="Caminho_7" data-name="Caminho 7" d="M464.319,61.807A20.955,20.955,0,0,1,428.565,47a20.124,20.124,0,0,1,6.157-14.788,20.864,20.864,0,0,1,29.6,0A20.157,20.157,0,0,1,470.455,47a20.178,20.178,0,0,1-6.137,14.808m-7.4-22.193A10.483,10.483,0,0,0,439.037,47a10.473,10.473,0,1,0,17.877-7.384" transform="translate(-207.897 -12.638)" fill="#fff"/>
      <path id="Caminho_8" data-name="Caminho 8" d="M525.869,65.875a20.179,20.179,0,0,1-6.136-14.808,20.986,20.986,0,0,1,20.945-20.945,20.122,20.122,0,0,1,14.788,6.157,20.124,20.124,0,0,1,6.157,14.788,20.942,20.942,0,0,1-35.754,14.808m22.193-7.4a10.4,10.4,0,0,0,0-14.788A10.463,10.463,0,0,0,530.2,51.066a10.457,10.457,0,0,0,17.857,7.4" transform="translate(-252.123 -14.612)" fill="#fff"/>
      <path id="Caminho_9" data-name="Caminho 9" d="M332.43,67.943V47a20.158,20.158,0,0,1,6.136-14.788,20.864,20.864,0,0,1,29.6,0A20.124,20.124,0,0,1,374.32,47V67.943H363.847V47A10.472,10.472,0,0,0,342.9,47V67.943Z" transform="translate(-161.262 -12.638)" fill="#fff" opacity="0.7"/>
    </g>
  </g>
</svg>
