<svg id="user" xmlns="http://www.w3.org/2000/svg" width="11.561" height="17.341" viewBox="0 0 11.561 17.341">
  <path id="Caminho_13" data-name="Caminho 13" d="M90.71,298.676a5.917,5.917,0,0,0-5.384,5.972v.157a1.084,1.084,0,0,0,1.084,1.084h0a1.084,1.084,0,0,0,1.084-1.084v-.2a3.723,3.723,0,0,1,3.251-3.757A3.617,3.617,0,0,1,94.7,304.09q.017.176.018.354v.361a1.084,1.084,0,0,0,1.084,1.084h0a1.084,1.084,0,0,0,1.084-1.084v-.361a5.787,5.787,0,0,0-5.793-5.78Q90.9,298.663,90.71,298.676Z" transform="translate(-85.325 -288.548)" fill="#fff"/>
  <path id="Caminho_14" data-name="Caminho 14" d="M132.343,8.67a4.335,4.335,0,1,0-4.335-4.335A4.335,4.335,0,0,0,132.343,8.67Zm0-6.5a2.168,2.168,0,1,1-2.168,2.168A2.168,2.168,0,0,1,132.343,2.168Z" transform="translate(-126.562)" fill="#fff"/>
</svg>
